<svg xmlns="http://www.w3.org/2000/svg" viewBox="0 0 128 128" width="128" height="128">
  <g transform="translate(28.0581 82) scale(0.026367 -0.026367)">
    <path fill="#d32f2f" d="M1270 1053H1075V1212Q1075 1327 995 1327Q962 1327 938 1323V365Q938 204 832.5 90.5Q727 -23 563 -23Q413 -23 295.5 80.0Q178 183 178 344V1280Q178 1293 163.5 1306.0Q149 1319 135 1319H53V1354H96Q125 1354 157.5 1356.0Q190 1358 222.0 1362.5Q254 1367 280 1373L330 1386L373 1384V297Q373 167 422.0 97.0Q471 27 559 27Q647 27 695.0 99.0Q743 171 743 305V1276Q743 1319 696 1319H616V1354H641Q815 1354 1015 1379Q1071 1386 1085 1386Q1173 1386 1221.5 1325.0Q1270 1264 1270 1149Z"/>
  </g>
  <g transform="translate(50.8159 82) scale(0.026367 -0.026367)">
    <path fill="#000000" d="M1367 0H996L773 369Q748 411 725.0 444.0Q702 477 678.5 500.5Q655 524 629.5 536.5Q604 549 574 549H487V0H164V1434H676Q1198 1434 1198 1044Q1198 969 1175.0 905.5Q1152 842 1110.0 791.0Q1068 740 1008.5 703.0Q949 666 876 645V641Q908 631 938.0 608.5Q968 586 996.0 556.0Q1024 526 1049.5 491.5Q1075 457 1096 424ZM487 1192V793H627Q731 793 794 853Q858 914 858 1004Q858 1192 633 1192Z"/>
  </g>
  <g transform="translate(79.1113 82) scale(0.026367 -0.026367)">
    <path fill="#d32f2f" d="M362 35H502Q608 35 669.5 -13.5Q731 -62 731 -141Q731 -231 654.5 -305.0Q578 -379 424 -379H362V-336Q460 -333 510.5 -284.5Q561 -236 561 -160Q561 -90 518.0 -51.0Q475 -12 399 -12H168V1260Q168 1284 159.5 1292.0Q151 1300 109 1300H57V1348H98Q131 1348 162.5 1349.5Q194 1351 223.0 1355.0Q252 1359 274 1364L315 1376H362Z"/>
  </g>
  <circle cx="64" cy="64" r="50" fill="none" stroke="#b71c1c" stroke-width="11"/>
  <path d="M 28.6447 28.6447 L 99.3553 99.3553" stroke="#b71c1c" stroke-width="11" stroke-linecap="round"/>
</svg>
